<svg xmlns="http://www.w3.org/2000/svg" width="457" height="546" viewBox="0 0 457 546" fill="none">
<path d="M123.45 408.648L152.889 345.603L142.234 292.682L79.3169 242.749L30.3809 230.542L0.252126 269.101L17.5283 348.893L61.5991 396.942L123.45 408.648Z" fill="#333333" fill-opacity="0.05"/>
<path d="M222.67 208.112L190.317 251.213L134.142 250.924L94.02 203.473L84.259 157.315L95.6715 85.0709L121.826 45.9352L174.105 45.6212L200.137 90.1589L221.825 155.162L222.67 208.112Z" fill="#333333" fill-opacity="0.05"/>
<path d="M288.352 186.933L351.944 198.115L387.662 165.239L386.26 93.3992L337.623 31.6636L289.705 0.112556L240.953 22.058L236.69 88.1172L257.259 149.768L288.352 186.933Z" fill="#333333" fill-opacity="0.05"/>
<path d="M519.174 242.834L482.286 277.942L419.201 245.737L407.995 179.397L426.327 98.9815L473.421 83.2558L530.523 153.53L519.174 242.834Z" fill="#333333" fill-opacity="0.05"/>
<path d="M467.682 474.024L352.907 471.782L269.032 545.343L177.054 532.903L149.015 443.352L201.789 326.938L269.255 232.209L386.834 265.264L496.696 331.275L521.16 415.736L467.682 474.024Z" fill="#333333" fill-opacity="0.05"/>
</svg>