<svg width="685" height="668" viewBox="0 0 685 668" fill="none" xmlns="http://www.w3.org/2000/svg">
<path d="M186.45 474.648L215.889 411.603L205.234 358.682L142.317 308.749L93.3809 296.542L63.2521 335.101L80.5283 414.893L124.599 462.942L186.45 474.648Z" fill="#333333" fill-opacity="0.05"/>
<path d="M285.67 274.112L253.317 317.213L197.142 316.924L157.02 269.473L147.259 223.315L158.671 151.071L184.826 111.935L237.105 111.621L263.137 156.159L284.825 221.162L285.67 274.112Z" fill="#333333" fill-opacity="0.05"/>
<path d="M351.352 252.933L414.944 264.115L450.662 231.239L449.26 159.399L400.623 97.6636L352.705 66.1126L303.953 88.058L299.69 154.117L320.259 215.768L351.352 252.933Z" fill="#333333" fill-opacity="0.05"/>
<path d="M582.174 308.834L545.286 343.942L482.201 311.737L470.995 245.397L489.327 164.981L536.421 149.256L593.523 219.53L582.174 308.834Z" fill="#333333" fill-opacity="0.05"/>
<path d="M530.682 540.024L415.907 537.782L332.032 611.343L240.054 598.903L212.015 509.352L264.789 392.938L332.255 298.209L449.834 331.264L559.696 397.275L584.16 481.736L530.682 540.024Z" fill="#333333" fill-opacity="0.05"/>
</svg>
