<svg width="24" height="24" viewBox="0 0 24 24" fill="none" xmlns="http://www.w3.org/2000/svg">
<path d="M12.7563 18.5086L15.8641 15.4008L21 18.9828L19.8479 20.1349C19.0805 20.9023 17.9541 21.187 16.9142 20.8764C13.7352 19.9267 10.8794 18.1856 8.34694 15.6531C5.81444 13.1206 4.07335 10.2648 3.12366 7.0858C2.813 6.04595 3.09769 4.91949 3.86509 4.1521L5.01718 3L8.59919 8.13589L5.49142 11.2437" fill="#FBFBFB"/>
<path d="M12.7563 18.5086L15.8641 15.4008L21 18.9828L19.8479 20.1349C19.0805 20.9023 17.9541 21.187 16.9142 20.8764C13.7352 19.9267 10.8794 18.1856 8.34694 15.6531C5.81444 13.1206 4.07335 10.2648 3.12366 7.0858C2.813 6.04595 3.09769 4.91949 3.86509 4.1521L5.01719 3L8.59919 8.13589L5.49142 11.2437" stroke="#292D2D" strokeWidth="2" strokeLinecap="round" strokeLinejoin="round"/>
</svg>
